<svg width="67" height="36" viewBox="0 0 67 36" fill="none" xmlns="http://www.w3.org/2000/svg">
<mask id="path-1-outside-1_1219_12" maskUnits="userSpaceOnUse" x="0" y="2" width="32" height="25" fill="black">
<rect fill="white" y="2" width="32" height="25"/>
<path d="M3.73535 5.72949L1.19531 5.16504L1.52734 3.53809H8.61621L15.8545 20.8369H16.1201L23.0596 3.53809H30.3145L30.6465 5.16504L28.123 5.72949V23.8086L30.6465 24.373L30.3145 26H22.7607L22.4287 24.373L24.9688 23.8086V5.91211H24.7031L16.5352 26H14.792L6.3252 5.91211H6.05957V23.8086L8.58301 24.373L8.25098 26H1.52734L1.19531 24.373L3.73535 23.8086V5.72949Z"/>
</mask>
<path d="M3.73535 5.72949L1.19531 5.16504L1.52734 3.53809H8.61621L15.8545 20.8369H16.1201L23.0596 3.53809H30.3145L30.6465 5.16504L28.123 5.72949V23.8086L30.6465 24.373L30.3145 26H22.7607L22.4287 24.373L24.9688 23.8086V5.91211H24.7031L16.5352 26H14.792L6.3252 5.91211H6.05957V23.8086L8.58301 24.373L8.25098 26H1.52734L1.19531 24.373L3.73535 23.8086V5.72949Z" fill="#F4B29C"/>
<path d="M3.73535 5.72949H4.73535V4.92732L3.95228 4.75331L3.73535 5.72949ZM1.19531 5.16504L0.215508 4.96508L0.0189883 5.92803L0.978382 6.14123L1.19531 5.16504ZM1.52734 3.53809V2.53809H0.710813L0.54754 3.33813L1.52734 3.53809ZM8.61621 3.53809L9.53871 3.15209L9.2818 2.53809H8.61621V3.53809ZM15.8545 20.8369L14.932 21.2229L15.1889 21.8369H15.8545V20.8369ZM16.1201 20.8369V21.8369H16.7964L17.0482 21.2092L16.1201 20.8369ZM23.0596 3.53809V2.53809H22.3833L22.1315 3.16577L23.0596 3.53809ZM30.3145 3.53809L31.2943 3.33813L31.131 2.53809H30.3145V3.53809ZM30.6465 5.16504L30.8648 6.14092L31.8225 5.92669L31.6263 4.96508L30.6465 5.16504ZM28.123 5.72949L27.9048 4.75361L27.123 4.92846V5.72949H28.123ZM28.123 23.8086H27.123V24.6096L27.9048 24.7845L28.123 23.8086ZM30.6465 24.373L31.6263 24.573L31.8225 23.6114L30.8648 23.3972L30.6465 24.373ZM30.3145 26V27H31.131L31.2943 26.2L30.3145 26ZM22.7607 26L21.7809 26.2L21.9442 27H22.7607V26ZM22.4287 24.373L22.2118 23.3969L21.2524 23.6101L21.4489 24.573L22.4287 24.373ZM24.9688 23.8086L25.1857 24.7848L25.9688 24.6108V23.8086H24.9688ZM24.9688 5.91211H25.9688V4.91211H24.9688V5.91211ZM24.7031 5.91211V4.91211H24.0302L23.7768 5.53545L24.7031 5.91211ZM16.5352 26V27H17.208L17.4615 26.3767L16.5352 26ZM14.792 26L13.8705 26.3884L14.1283 27H14.792V26ZM6.3252 5.91211L7.24669 5.52371L6.9889 4.91211H6.3252V5.91211ZM6.05957 5.91211V4.91211H5.05957V5.91211H6.05957ZM6.05957 23.8086H5.05957V24.6096L5.84128 24.7845L6.05957 23.8086ZM8.58301 24.373L9.56281 24.573L9.75906 23.6114L8.8013 23.3972L8.58301 24.373ZM8.25098 26V27H9.06751L9.23078 26.2L8.25098 26ZM1.52734 26L0.54754 26.2L0.710813 27H1.52734V26ZM1.19531 24.373L0.978382 23.3969L0.0189883 23.6101L0.215508 24.573L1.19531 24.373ZM3.73535 23.8086L3.95228 24.7848L4.73535 24.6108V23.8086H3.73535ZM3.95228 4.75331L1.41224 4.18885L0.978382 6.14123L3.51842 6.70568L3.95228 4.75331ZM2.17512 5.365L2.50715 3.73805L0.54754 3.33813L0.215508 4.96508L2.17512 5.365ZM1.52734 4.53809H8.61621V2.53809H1.52734V4.53809ZM7.69371 3.92408L14.932 21.2229L16.777 20.4509L9.53871 3.15209L7.69371 3.92408ZM15.8545 21.8369H16.1201V19.8369H15.8545V21.8369ZM17.0482 21.2092L23.9877 3.9104L22.1315 3.16577L15.192 20.4646L17.0482 21.2092ZM23.0596 4.53809H30.3145V2.53809H23.0596V4.53809ZM29.3346 3.73805L29.6667 5.365L31.6263 4.96508L31.2943 3.33813L29.3346 3.73805ZM30.4282 4.18915L27.9048 4.75361L28.3413 6.70538L30.8648 6.14092L30.4282 4.18915ZM27.123 5.72949V23.8086H29.123V5.72949H27.123ZM27.9048 24.7845L30.4282 25.3489L30.8648 23.3972L28.3413 22.8327L27.9048 24.7845ZM29.6667 24.1731L29.3346 25.8L31.2943 26.2L31.6263 24.573L29.6667 24.1731ZM30.3145 25H22.7607V27H30.3145V25ZM23.7405 25.8L23.4085 24.1731L21.4489 24.573L21.7809 26.2L23.7405 25.8ZM22.6456 25.3492L25.1857 24.7848L24.7518 22.8324L22.2118 23.3969L22.6456 25.3492ZM25.9688 23.8086V5.91211H23.9688V23.8086H25.9688ZM24.9688 4.91211H24.7031V6.91211H24.9688V4.91211ZM23.7768 5.53545L15.6088 25.6233L17.4615 26.3767L25.6295 6.28877L23.7768 5.53545ZM16.5352 25H14.792V27H16.5352V25ZM15.7135 25.6116L7.24669 5.52371L5.4037 6.30051L13.8705 26.3884L15.7135 25.6116ZM6.3252 4.91211H6.05957V6.91211H6.3252V4.91211ZM5.05957 5.91211V23.8086H7.05957V5.91211H5.05957ZM5.84128 24.7845L8.36472 25.3489L8.8013 23.3972L6.27786 22.8327L5.84128 24.7845ZM7.6032 24.1731L7.27117 25.8L9.23078 26.2L9.56281 24.573L7.6032 24.1731ZM8.25098 25H1.52734V27H8.25098V25ZM2.50715 25.8L2.17512 24.1731L0.215508 24.573L0.54754 26.2L2.50715 25.8ZM1.41224 25.3492L3.95228 24.7848L3.51842 22.8324L0.978382 23.3969L1.41224 25.3492ZM4.73535 23.8086V5.72949H2.73535V23.8086H4.73535Z" fill="#F4B29C" mask="url(#path-1-outside-1_1219_12)"/>
<line x1="38.5" y1="3" x2="38.5" y2="27" stroke="#F4B29C"/>
<mask id="path-4-outside-2_1219_12" maskUnits="userSpaceOnUse" x="44" y="2" width="22" height="26" fill="black">
<rect fill="white" x="44" y="2" width="22" height="26"/>
<path d="M55.0068 26.3652C51.9189 26.3652 49.5947 25.6071 48.0342 24.0908C46.4736 22.5635 45.6934 20.2946 45.6934 17.2842V15.9727C45.6934 11.6673 46.5124 8.45768 48.1504 6.34375C49.7884 4.22982 52.1846 3.17285 55.3389 3.17285C58.4157 3.17285 60.7344 3.93099 62.2949 5.44727C63.8555 6.95247 64.6357 9.22689 64.6357 12.2705V13.5654C64.6357 17.738 63.8389 20.9144 62.2451 23.0947C60.6514 25.2751 58.2386 26.3652 55.0068 26.3652ZM61.4814 13.001C61.4814 10.389 60.9004 8.45768 59.7383 7.20703C58.5872 5.94531 56.9548 5.31445 54.8408 5.31445C53.8558 5.31445 52.9261 5.4694 52.0518 5.7793C51.1774 6.07812 50.4912 6.41016 49.9932 6.77539C49.6611 7.79362 49.3844 8.93913 49.1631 10.2119C48.9528 11.4736 48.8477 12.846 48.8477 14.3291V16.5371C48.8477 18.9831 49.4674 20.8757 50.707 22.2148C51.9577 23.554 53.557 24.2236 55.5049 24.2236C56.4788 24.2236 57.3919 24.0798 58.2441 23.792C59.1074 23.4932 59.8102 23.1445 60.3525 22.7461C60.7067 21.6393 60.9834 20.4219 61.1826 19.0938C61.3818 17.7656 61.4814 16.4707 61.4814 15.209V13.001Z"/>
</mask>
<path d="M55.0068 26.3652C51.9189 26.3652 49.5947 25.6071 48.0342 24.0908C46.4736 22.5635 45.6934 20.2946 45.6934 17.2842V15.9727C45.6934 11.6673 46.5124 8.45768 48.1504 6.34375C49.7884 4.22982 52.1846 3.17285 55.3389 3.17285C58.4157 3.17285 60.7344 3.93099 62.2949 5.44727C63.8555 6.95247 64.6357 9.22689 64.6357 12.2705V13.5654C64.6357 17.738 63.8389 20.9144 62.2451 23.0947C60.6514 25.2751 58.2386 26.3652 55.0068 26.3652ZM61.4814 13.001C61.4814 10.389 60.9004 8.45768 59.7383 7.20703C58.5872 5.94531 56.9548 5.31445 54.8408 5.31445C53.8558 5.31445 52.9261 5.4694 52.0518 5.7793C51.1774 6.07812 50.4912 6.41016 49.9932 6.77539C49.6611 7.79362 49.3844 8.93913 49.1631 10.2119C48.9528 11.4736 48.8477 12.846 48.8477 14.3291V16.5371C48.8477 18.9831 49.4674 20.8757 50.707 22.2148C51.9577 23.554 53.557 24.2236 55.5049 24.2236C56.4788 24.2236 57.3919 24.0798 58.2441 23.792C59.1074 23.4932 59.8102 23.1445 60.3525 22.7461C60.7067 21.6393 60.9834 20.4219 61.1826 19.0938C61.3818 17.7656 61.4814 16.4707 61.4814 15.209V13.001Z" fill="#F4B29C"/>
<path d="M48.0342 24.0908L47.3347 24.8055L47.3373 24.808L48.0342 24.0908ZM48.1504 6.34375L47.3599 5.73124L48.1504 6.34375ZM62.2949 5.44727L61.5981 6.16448L61.6007 6.16702L62.2949 5.44727ZM59.7383 7.20703L58.9995 7.88102L59.0057 7.88773L59.7383 7.20703ZM52.0518 5.7793L52.3752 6.72562L52.3858 6.72185L52.0518 5.7793ZM49.9932 6.77539L49.4018 5.96899L49.1422 6.15934L49.0424 6.46537L49.9932 6.77539ZM49.1631 10.2119L48.1778 10.0406L48.1767 10.0475L49.1631 10.2119ZM50.707 22.2148L49.9732 22.8941L49.9762 22.8974L50.707 22.2148ZM58.2441 23.792L58.5641 24.7395L58.5713 24.737L58.2441 23.792ZM60.3525 22.7461L60.9446 23.552L61.2061 23.3599L61.305 23.0509L60.3525 22.7461ZM55.0068 25.3652C52.0695 25.3652 50.0388 24.6443 48.731 23.3736L47.3373 24.808C49.1506 26.5699 51.7684 27.3652 55.0068 27.3652V25.3652ZM48.7336 23.3762C47.4289 22.0991 46.6934 20.1299 46.6934 17.2842H44.6934C44.6934 20.4592 45.5184 23.0278 47.3347 24.8055L48.7336 23.3762ZM46.6934 17.2842V15.9727H44.6934V17.2842H46.6934ZM46.6934 15.9727C46.6934 11.7637 47.4994 8.81649 48.9409 6.95626L47.3599 5.73124C45.5253 8.09888 44.6934 11.571 44.6934 15.9727H46.6934ZM48.9409 6.95626C50.3543 5.13216 52.4314 4.17285 55.3389 4.17285V2.17285C51.9377 2.17285 49.2225 3.32748 47.3599 5.73124L48.9409 6.95626ZM55.3389 4.17285C58.2639 4.17285 60.2897 4.89321 61.5981 6.16447L62.9918 4.73006C61.1791 2.96877 58.5674 2.17285 55.3389 2.17285V4.17285ZM61.6007 6.16702C62.8979 7.41818 63.6357 9.3866 63.6357 12.2705H65.6357C65.6357 9.06717 64.8131 6.48677 62.9892 4.72751L61.6007 6.16702ZM63.6357 12.2705V13.5654H65.6357V12.2705H63.6357ZM63.6357 13.5654C63.6357 17.6341 62.8548 20.5661 61.4378 22.5046L63.0524 23.6848C64.8229 21.2627 65.6357 17.8418 65.6357 13.5654H63.6357ZM61.4378 22.5046C60.0706 24.375 57.9904 25.3652 55.0068 25.3652V27.3652C58.4868 27.3652 61.2321 26.1751 63.0524 23.6848L61.4378 22.5046ZM62.4814 13.001C62.4814 10.2663 61.8765 8.03905 60.4708 6.52633L59.0057 7.88773C59.9243 8.87631 60.4814 10.5117 60.4814 13.001H62.4814ZM60.477 6.53307C59.093 5.0159 57.164 4.31445 54.8408 4.31445V6.31445C56.7455 6.31445 58.0815 6.87472 58.9995 7.88099L60.477 6.53307ZM54.8408 4.31445C53.7491 4.31445 52.7058 4.48653 51.7177 4.83675L52.3858 6.72185C53.1464 6.45227 53.9625 6.31445 54.8408 6.31445V4.31445ZM51.7284 4.83304C50.8007 5.15007 50.0113 5.52201 49.4018 5.96899L50.5845 7.58179C50.9711 7.29831 51.5541 7.00618 52.3752 6.72556L51.7284 4.83304ZM49.0424 6.46537C48.693 7.53706 48.4058 8.73003 48.1779 10.0406L50.1483 10.3833C50.3631 9.14823 50.6293 8.05018 50.9439 7.08541L49.0424 6.46537ZM48.1767 10.0475C47.9561 11.3713 47.8477 12.7994 47.8477 14.3291H49.8477C49.8477 12.8926 49.9495 11.5759 50.1495 10.3763L48.1767 10.0475ZM47.8477 14.3291V16.5371H49.8477V14.3291H47.8477ZM47.8477 16.5371C47.8477 19.1476 48.5112 21.3147 49.9732 22.8941L51.4409 21.5356C50.4237 20.4366 49.8477 18.8186 49.8477 16.5371H47.8477ZM49.9762 22.8974C51.4289 24.453 53.2995 25.2236 55.5049 25.2236V23.2236C53.8145 23.2236 52.4864 22.6551 51.4379 21.5323L49.9762 22.8974ZM55.5049 25.2236C56.5786 25.2236 57.6006 25.0648 58.5641 24.7394L57.9242 22.8445C57.1833 23.0947 56.3791 23.2236 55.5049 23.2236V25.2236ZM58.5713 24.737C59.4979 24.4162 60.2984 24.0267 60.9446 23.552L59.7605 21.9402C59.322 22.2623 58.717 22.5701 57.917 22.847L58.5713 24.737ZM61.305 23.0509C61.6778 21.8859 61.9656 20.6153 62.1716 19.2421L60.1937 18.9454C60.0012 20.2285 59.7356 21.3928 59.4001 22.4413L61.305 23.0509ZM62.1716 19.2421C62.3777 17.868 62.4814 16.5234 62.4814 15.209H60.4814C60.4814 16.418 60.386 17.6633 60.1937 18.9454L62.1716 19.2421ZM62.4814 15.209V13.001H60.4814V15.209H62.4814Z" fill="#F4B29C" mask="url(#path-4-outside-2_1219_12)"/>
</svg>
